#!OML:ASF F:\VICON\USERDATA\INSTALL\rory3\rory3.ASF
:FULLY-SPECIFIED
:DEGREES
758
root -0.917948 18.2169 1.68139 1.18442 25.7825 361.217
lowerback 8.31293 -0.0664713 -4.10872
upperback -0.454688 -0.521387 -0.539351
thorax -5.11275 -0.152975 1.81423
lowerneck -18.1578 -8.17853 -13.8899
upperneck 31.5459 -10.866 10.3355
head 15.5767 -4.89351 4.67089
rclavicle -3.59303e-014 -4.37326e-015
rhumerus -34.7216 -5.60581 -85.9279
rradius 37.6812
rwrist 4.5124
rhand -15.1078 7.93782
rfingers 7.12502
rthumb 11.0608 -21.7507
lclavicle -3.59303e-014 -4.37326e-015
lhumerus -37.4642 1.27796 81.6607
lradius 35.1598
lwrist -1.31616
lhand -17.826 27.0893
lfingers 7.12502
lthumb 8.43827 56.9008
rfemur -5.67838 -18.5055 21.5588
rtibia 25.8711
rfoot -13.5122 -23.1418
rtoes 2.82594
lfemur -5.57434 13.6909 -26.0587
ltibia 13.8914
lfoot -8.13792 35.6019
ltoes 22.3444
759
root -0.943881 18.2092 1.68268 1.1503 25.225 361.296
lowerback 8.36467 -0.14774 -4.09557
upperback -0.470754 -0.634705 -0.604427
thorax -5.15271 -0.20908 1.75363
lowerneck -18.2048 -8.18753 -13.9369
upperneck 31.6584 -10.8637 10.3085
head 15.6427 -4.90285 4.67107
rclavicle -1.50828e-014 -7.95139e-015
rhumerus -34.6592 -5.63842 -85.9176
rradius 37.2632
rwrist 4.39218
rhand -15.1512 7.78106
rfingers 7.12502
rthumb 11.019 -21.9097
lclavicle -1.50828e-014 -7.95139e-015
lhumerus -37.552 1.335 81.3873
lradius 35.1794
lwrist -1.77477
lhand -17.5054 26.926
lfingers 7.12502
lthumb 8.74761 56.7247
rfemur -4.98934 -17.6257 21.6053
rtibia 24.6489
rfoot -13.3475 -23.3663
rtoes 2.67312
lfemur -5.75133 13.8337 -26.0156
ltibia 14.3741
lfoot -8.7041 35.788
ltoes 23.0821
760
root -0.969024 18.2018 1.68246 1.15635 24.6981 361.372
lowerback 8.38962 -0.25876 -4.09716
upperback -0.514191 -0.787361 -0.642932
thorax -5.20371 -0.283295 1.73396
lowerneck -18.2187 -8.16611 -13.9098
upperneck 31.7411 -10.806 10.181
head 15.6629 -4.89396 4.62499
rclavicle -9.28076e-015 7.95139e-016
rhumerus -34.5942 -5.52283 -85.9212
rradius 36.8422
rwrist 4.2879
rhand -15.1684 7.62475
rfingers 7.12502
rthumb 11.0024 -22.0669
lclavicle -9.28076e-015 7.95139e-016
lhumerus -37.6425 1.53122 81.1118
lradius 35.3257
lwrist -2.37259
lhand -16.4267 25.7013
lfingers 7.12502
lthumb 9.78852 55.4538
rfemur -4.32623 -16.8301 21.6656
rtibia 23.4581
rfoot -13.5893 -23.4814
rtoes 3.7995
lfemur -5.97028 14.114 -25.9841
ltibia 14.8574
lfoot -8.6023 35.7676
ltoes 22.6738
761
root -0.993906 18.1961 1.67903 1.06374 24.1566 361.312
lowerback 8.3977 -0.375426 -3.9575
upperback -0.471014 -0.927777 -0.641934
thorax -5.15637 -0.357902 1.67406
lowerneck -18.3314 -8.1355 -13.8525
upperneck 31.7759 -10.7162 10.0257
head 15.6731 -4.86824 4.56387
rclavicle -1.23246e-014 3.18055e-015
rhumerus -34.467 -5.48295 -85.8791
rradius 36.5159
rwrist 4.61782
rhand -15.0404 7.85946
rfingers 7.12502
rthumb 11.1258 -21.8256
lclavicle -1.23246e-014 3.18055e-015
lhumerus -37.6402 1.58451 80.9879
lradius 35.6072
lwrist -2.32065
lhand -15.1353 27.4482
lfingers 7.12502
lthumb 11.0343 57.1382
rfemur -3.66932 -15.9346 21.8526
rtibia 22.3341
rfoot -14.0003 -23.5418
rtoes 5.80645
lfemur -6.13407 14.337 -25.8167
ltibia 15.275
lfoot -8.70357 35.8461
ltoes 22.6224
762
root -1.01906 18.195 1.67378 0.907156 23.6616 361.172
lowerback 8.43897 -0.459147 -3.74364
upperback -0.422886 -1.01704 -0.614397
thorax -5.12673 -0.408558 1.59411
lowerneck -18.3362 -8.10779 -13.8793
upperneck 31.7842 -10.6477 9.96677
head 15.6639 -4.8522 4.55669
rclavicle -7.96754e-014 -5.96354e-015
rhumerus -34.264 -5.57928 -85.7606
rradius 36.0883
rwrist 5.11773
rhand -15.2196 8.20726
rfingers 7.12502
rthumb 10.9529 -21.487
lclavicle -7.96754e-014 -5.96354e-015
lhumerus -37.5891 1.57109 80.9194
lradius 35.7424
lwrist -2.31016
lhand -14.7227 28.7557
lfingers 7.12502
lthumb 11.4322 58.4241
rfemur -3.08357 -15.0769 22.109
rtibia 21.3673
rfoot -14.0468 -23.6147
rtoes 7.47003
lfemur -6.19658 14.3933 -25.5642
ltibia 15.5678
lfoot -9.06838 36.0569
ltoes 23.2401
763
root -1.04218 18.1992 1.66924 0.89929 23.1987 361.193
lowerback 8.47036 -0.565833 -3.66002
upperback -0.492732 -1.15524 -0.631924
thorax -5.21204 -0.476906 1.54727
lowerneck -18.1251 -8.0285 -13.9277
upperneck 31.7899 -10.5361 9.94229
head 15.6004 -4.82302 4.5823
rclavicle -6.04678e-014 -5.1684e-015
rhumerus -34.1305 -5.39234 -85.8004
rradius 35.76
rwrist 4.58958
rhand -15.381 7.92648
rfingers 7.12502
rthumb 10.7973 -21.776
lclavicle -6.04678e-014 -5.1684e-015
lhumerus -37.7058 1.70952 80.6836
lradius 35.7833
lwrist -2.72004
lhand -14.6341 27.5829
lfingers 7.12502
lthumb 11.5177 57.2465
rfemur -2.66754 -14.535 22.2013
rtibia 20.5264
rfoot -13.71 -23.5008
rtoes 8.54767
lfemur -6.29616 14.2834 -25.4996
ltibia 15.8133
lfoot -9.79656 36.3178
ltoes 24.3206
